<svg width="48" height="48" viewBox="0 0 48 48" fill="none" xmlns="http://www.w3.org/2000/svg">
<g filter="url(#filter0_d_14_79)">
<rect x="2" y="2" width="40" height="40" rx="5" fill="#767676"/>
<rect x="1.5" y="1.5" width="41" height="41" rx="5.5" stroke="black"/>
</g>
<path d="M12.8333 14.6667C12.8333 9.60406 16.9374 5.5 22 5.5C27.0626 5.5 31.1666 9.60406 31.1666 14.6667C31.1666 19.7293 27.0626 23.8333 22 23.8333C16.9374 23.8333 12.8333 19.7293 12.8333 14.6667ZM22 20.1667C25.0375 20.1667 27.5 17.7042 27.5 14.6667C27.5 11.6291 25.0375 9.16667 22 9.16667C18.9624 9.16667 16.5 11.6291 16.5 14.6667C16.5 17.7042 18.9624 20.1667 22 20.1667Z" fill="#272727"/>
<path d="M11.6291 29.9624C8.87855 32.713 7.33331 36.4435 7.33331 40.3333H11C11 37.416 12.1589 34.6181 14.2218 32.5552C16.2847 30.4923 19.0826 29.3333 22 29.3333C24.9174 29.3333 27.7153 30.4923 29.7782 32.5552C31.8411 34.6181 33 37.416 33 40.3333H36.6666C36.6666 36.4435 35.1214 32.713 32.3709 29.9624C29.6203 27.2119 25.8898 25.6667 22 25.6667C18.1101 25.6667 14.3796 27.2119 11.6291 29.9624Z" fill="#272727"/>
<circle cx="40" cy="39" r="4.5" fill="#00FF00" stroke="black"/>
<defs>
<filter id="filter0_d_14_79" x="0" y="0" width="48" height="48" filterUnits="userSpaceOnUse" color-interpolation-filters="sRGB">
<feFlood flood-opacity="0" result="BackgroundImageFix"/>
<feColorMatrix in="SourceAlpha" type="matrix" values="0 0 0 0 0 0 0 0 0 0 0 0 0 0 0 0 0 0 127 0" result="hardAlpha"/>
<feOffset dx="2" dy="2"/>
<feGaussianBlur stdDeviation="1.5"/>
<feComposite in2="hardAlpha" operator="out"/>
<feColorMatrix type="matrix" values="0 0 0 0 0 0 0 0 0 0 0 0 0 0 0 0 0 0 0.4 0"/>
<feBlend mode="normal" in2="BackgroundImageFix" result="effect1_dropShadow_14_79"/>
<feBlend mode="normal" in="SourceGraphic" in2="effect1_dropShadow_14_79" result="shape"/>
</filter>
</defs>
</svg>
