<svg width="40" height="40" viewBox="0 0 40 40" fill="none" xmlns="http://www.w3.org/2000/svg">
<path d="M6.66659 31.6667H3.33325C3.33325 26.1438 7.8104 21.6667 13.3333 21.6667C18.8561 21.6667 23.3333 26.1438 23.3333 31.6667H19.9999C19.9999 27.9848 17.0152 25 13.3333 25C9.65135 25 6.66659 27.9848 6.66659 31.6667ZM31.6666 26.6667H28.3333V21.6667H23.3333V18.3333H28.3333V13.3333H31.6666V18.3333H36.6666V21.6667H31.6666V26.6667ZM13.3333 20C9.65135 20 6.66659 17.0152 6.66659 13.3333C6.66659 9.65142 9.65135 6.66666 13.3333 6.66666C17.0152 6.66666 19.9999 9.65142 19.9999 13.3333C19.9953 17.0133 17.0132 19.9954 13.3333 20ZM13.3333 9.99999C11.5122 10.0018 10.0297 11.4647 10.0036 13.2856C9.97754 15.1064 11.4175 16.6112 13.2377 16.6652C15.0579 16.7192 16.5846 15.3025 16.6666 13.4833V14.15V13.3333C16.6666 11.4924 15.1742 9.99999 13.3333 9.99999Z" fill="#272727"/>
</svg>
