<svg width="262" height="94" viewBox="0 0 262 94" fill="none" xmlns="http://www.w3.org/2000/svg">
<path d="M89.0647 65H86.956L83.5694 60.3034C82.7387 61.0489 81.8548 61.7518 80.9176 62.4121C80.0017 63.0511 79.0326 63.6155 78.0102 64.1054C76.9878 64.574 75.9335 64.9468 74.8472 65.2236C73.7822 65.5005 72.6959 65.639 71.5883 65.639C69.1815 65.639 66.9131 65.2343 64.7831 64.4249C62.6745 63.6155 60.8214 62.444 59.2239 60.9105C57.6477 59.3556 56.4017 57.4599 55.4858 55.2235C54.5699 52.987 54.112 50.4417 54.112 47.5876C54.112 44.9251 54.5699 42.4863 55.4858 40.2711C56.4017 38.0347 57.6477 36.1177 59.2239 34.5202C60.8214 32.9228 62.6745 31.6874 64.7831 30.8141C66.9131 29.9195 69.1815 29.4722 71.5883 29.4722C72.6959 29.4722 73.7929 29.6107 74.8791 29.8876C75.9654 30.1645 77.0197 30.5479 78.0421 31.0378C79.0645 31.5276 80.0336 32.1027 80.9495 32.763C81.8867 33.4233 82.76 34.1368 83.5694 34.9036L86.956 30.8461H89.0647V65ZM80.2786 47.5876C80.2786 46.3948 80.0443 45.2446 79.5757 44.137C79.1284 43.0081 78.5107 42.0177 77.7226 41.1657C76.9345 40.2924 76.008 39.6002 74.943 39.089C73.8994 38.5565 72.7811 38.2903 71.5883 38.2903C70.3956 38.2903 69.2667 38.4926 68.2017 38.8973C67.158 39.302 66.2421 39.8984 65.4541 40.6865C64.6873 41.4746 64.0802 42.4544 63.6329 43.6258C63.1856 44.776 62.962 46.0966 62.962 47.5876C62.962 49.0785 63.1856 50.4098 63.6329 51.5812C64.0802 52.7314 64.6873 53.7006 65.4541 54.4886C66.2421 55.2767 67.158 55.8731 68.2017 56.2778C69.2667 56.6825 70.3956 56.8848 71.5883 56.8848C72.7811 56.8848 73.8994 56.6292 74.943 56.1181C76.008 55.5856 76.9345 54.8933 77.7226 54.0413C78.5107 53.1681 79.1284 52.1776 79.5757 51.07C80.0443 49.9412 80.2786 48.7803 80.2786 47.5876ZM139.257 65H130.567V43.2744C130.567 42.678 130.45 42.1136 130.216 41.5811C130.003 41.0486 129.694 40.58 129.289 40.1753C128.884 39.7706 128.416 39.4618 127.883 39.2488C127.351 39.0145 126.786 38.8973 126.19 38.8973C125.594 38.8973 125.029 39.0145 124.497 39.2488C123.985 39.4618 123.527 39.7706 123.123 40.1753C122.739 40.58 122.431 41.0486 122.196 41.5811C121.983 42.1136 121.877 42.678 121.877 43.2744V65H113.155V43.2744C113.155 42.678 113.037 42.1136 112.803 41.5811C112.59 41.0486 112.281 40.58 111.877 40.1753C111.472 39.7706 111.003 39.4618 110.471 39.2488C109.938 39.0145 109.374 38.8973 108.777 38.8973C108.181 38.8973 107.617 39.0145 107.084 39.2488C106.573 39.4618 106.115 39.7706 105.71 40.1753C105.327 40.58 105.018 41.0486 104.784 41.5811C104.571 42.1136 104.464 42.678 104.464 43.2744V65H95.7421V30.7822H97.8508L100.215 33.402C101.429 32.3796 102.76 31.5915 104.209 31.0378C105.678 30.4627 107.201 30.1751 108.777 30.1751C110.375 30.1751 111.93 30.4733 113.442 31.0697C114.976 31.6661 116.318 32.6991 117.468 34.1688C118 33.4446 118.607 32.8269 119.289 32.3157C119.97 31.8045 120.684 31.3892 121.429 31.0697C122.196 30.7502 122.984 30.5266 123.794 30.3988C124.603 30.2497 125.402 30.1751 126.19 30.1751C128 30.1751 129.694 30.5159 131.27 31.1975C132.867 31.8791 134.252 32.8163 135.423 34.0091C136.616 35.1805 137.553 36.565 138.235 38.1625C138.916 39.7599 139.257 41.4639 139.257 43.2744V65ZM179.641 47.5876C179.641 50.2713 179.183 52.7208 178.267 54.9359C177.352 57.1511 176.106 59.0574 174.529 60.6549C172.953 62.231 171.1 63.4558 168.97 64.3291C166.862 65.2023 164.593 65.639 162.165 65.639C159.758 65.639 157.49 65.1917 155.36 64.2971C153.251 63.4025 151.398 62.1565 149.801 60.559C148.224 58.9616 146.978 57.0659 146.062 54.872C145.147 52.6569 144.689 50.2287 144.689 47.5876V17.1717H153.443V33.1464C153.911 32.55 154.476 32.0175 155.136 31.5489C155.818 31.0804 156.542 30.697 157.309 30.3988C158.097 30.1006 158.906 29.8769 159.737 29.7278C160.568 29.5574 161.377 29.4722 162.165 29.4722C164.593 29.4722 166.862 29.9302 168.97 30.8461C171.1 31.7406 172.953 32.9973 174.529 34.6161C176.106 36.2349 177.352 38.1518 178.267 40.367C179.183 42.5608 179.641 44.9677 179.641 47.5876ZM170.855 47.5876C170.855 46.267 170.621 45.0423 170.152 43.9134C169.705 42.7632 169.087 41.7728 168.299 40.9421C167.511 40.1114 166.585 39.4618 165.52 38.9932C164.476 38.5246 163.358 38.2903 162.165 38.2903C160.972 38.2903 159.843 38.5565 158.778 39.089C157.735 39.6002 156.819 40.2924 156.031 41.1657C155.243 42.0177 154.625 43.0081 154.178 44.137C153.73 45.2446 153.507 46.3948 153.507 47.5876C153.507 48.9081 153.73 50.1329 154.178 51.2617C154.625 52.3906 155.243 53.3704 156.031 54.2011C156.819 55.0318 157.735 55.6921 158.778 56.182C159.843 56.6505 160.972 56.8848 162.165 56.8848C163.358 56.8848 164.476 56.6505 165.52 56.182C166.585 55.6921 167.511 55.0318 168.299 54.2011C169.087 53.3704 169.705 52.3906 170.152 51.2617C170.621 50.1329 170.855 48.9081 170.855 47.5876ZM217.565 47.5876C217.565 50.1435 217.107 52.5291 216.191 54.7442C215.276 56.9381 214.03 58.8444 212.453 60.4632C210.877 62.0607 209.024 63.328 206.894 64.2652C204.786 65.181 202.517 65.639 200.089 65.639C197.682 65.639 195.414 65.181 193.284 64.2652C191.175 63.328 189.322 62.0607 187.725 60.4632C186.148 58.8444 184.902 56.9381 183.986 54.7442C183.071 52.5291 182.613 50.1435 182.613 47.5876C182.613 44.989 183.071 42.5821 183.986 40.367C184.902 38.1518 186.148 36.2455 187.725 34.648C189.322 33.0293 191.175 31.7619 193.284 30.8461C195.414 29.9302 197.682 29.4722 200.089 29.4722C202.517 29.4722 204.786 29.9089 206.894 30.7822C209.024 31.6341 210.877 32.8589 212.453 34.4563C214.03 36.0325 215.276 37.9388 216.191 40.1753C217.107 42.3905 217.565 44.8612 217.565 47.5876ZM208.779 47.5876C208.779 46.1818 208.545 44.9145 208.076 43.7856C207.629 42.6354 207.011 41.6556 206.223 40.8462C205.435 40.0155 204.509 39.3872 203.444 38.9612C202.4 38.5139 201.282 38.2903 200.089 38.2903C198.896 38.2903 197.767 38.5139 196.702 38.9612C195.659 39.3872 194.743 40.0155 193.955 40.8462C193.188 41.6556 192.581 42.6354 192.134 43.7856C191.686 44.9145 191.463 46.1818 191.463 47.5876C191.463 48.9081 191.686 50.1329 192.134 51.2617C192.581 52.3906 193.188 53.3704 193.955 54.2011C194.743 55.0318 195.659 55.6921 196.702 56.182C197.767 56.6505 198.896 56.8848 200.089 56.8848C201.282 56.8848 202.4 56.6612 203.444 56.2139C204.509 55.7666 205.435 55.1383 206.223 54.3289C207.011 53.5195 207.629 52.5397 208.076 51.3895C208.545 50.2394 208.779 48.972 208.779 47.5876ZM255.457 47.5876C255.457 50.1435 254.999 52.5291 254.084 54.7442C253.168 56.9381 251.922 58.8444 250.345 60.4632C248.769 62.0607 246.916 63.328 244.786 64.2652C242.678 65.181 240.409 65.639 237.981 65.639C235.574 65.639 233.306 65.181 231.176 64.2652C229.067 63.328 227.214 62.0607 225.617 60.4632C224.04 58.8444 222.794 56.9381 221.878 54.7442C220.963 52.5291 220.505 50.1435 220.505 47.5876C220.505 44.989 220.963 42.5821 221.878 40.367C222.794 38.1518 224.04 36.2455 225.617 34.648C227.214 33.0293 229.067 31.7619 231.176 30.8461C233.306 29.9302 235.574 29.4722 237.981 29.4722C240.409 29.4722 242.678 29.9089 244.786 30.7822C246.916 31.6341 248.769 32.8589 250.345 34.4563C251.922 36.0325 253.168 37.9388 254.084 40.1753C254.999 42.3905 255.457 44.8612 255.457 47.5876ZM246.671 47.5876C246.671 46.1818 246.437 44.9145 245.968 43.7856C245.521 42.6354 244.903 41.6556 244.115 40.8462C243.327 40.0155 242.401 39.3872 241.336 38.9612C240.292 38.5139 239.174 38.2903 237.981 38.2903C236.788 38.2903 235.659 38.5139 234.594 38.9612C233.551 39.3872 232.635 40.0155 231.847 40.8462C231.08 41.6556 230.473 42.6354 230.026 43.7856C229.578 44.9145 229.355 46.1818 229.355 47.5876C229.355 48.9081 229.578 50.1329 230.026 51.2617C230.473 52.3906 231.08 53.3704 231.847 54.2011C232.635 55.0318 233.551 55.6921 234.594 56.182C235.659 56.6505 236.788 56.8848 237.981 56.8848C239.174 56.8848 240.292 56.6612 241.336 56.2139C242.401 55.7666 243.327 55.1383 244.115 54.3289C244.903 53.5195 245.521 52.5397 245.968 51.3895C246.437 50.2394 246.671 48.972 246.671 47.5876Z" fill="#80FF00"/>
<rect x="10.9208" y="5.4527" width="10.9208" height="59.9797" rx="5.4527" fill="#80FF00"/>
<ellipse rx="4.64332" ry="8.9889" transform="matrix(0.866694 0.498839 -0.499898 0.866084 24.8991 17.3717)" fill="#80FF00"/>
<ellipse rx="4.64332" ry="8.9889" transform="matrix(0.866694 -0.498839 -0.499898 -0.866084 8.51788 39.1825)" fill="#80FF00"/>
<path d="M50.9515 46.5876C50.9515 49.1435 50.4936 51.5291 49.5777 53.7442C48.6618 55.9381 47.4158 57.8444 45.8396 59.4632C44.2634 61.0607 42.4103 62.328 40.2804 63.2652C38.1717 64.181 35.9033 64.639 33.4752 64.639C31.0683 64.639 28.7999 64.181 26.6699 63.2652C24.5613 62.328 22.7082 61.0607 21.1107 59.4632C19.5346 57.8444 18.2885 55.9381 17.3726 53.7442C16.4568 51.5291 15.9988 49.1435 15.9988 46.5876C15.9988 43.989 16.4568 41.5821 17.3726 39.367C18.2885 37.1518 19.5346 35.2455 21.1107 33.648C22.7082 32.0293 24.5613 30.7619 26.6699 29.8461C28.7999 28.9302 31.0683 28.4722 33.4752 28.4722C35.9033 28.4722 38.1717 28.9089 40.2804 29.7822C42.4103 30.6341 44.2634 31.8589 45.8396 33.4563C47.4158 35.0325 48.6618 36.9388 49.5777 39.1753C50.4936 41.3905 50.9515 43.8612 50.9515 46.5876ZM42.1654 46.5876C42.1654 45.1818 41.9311 43.9145 41.4625 42.7856C41.0152 41.6354 40.3975 40.6556 39.6094 39.8462C38.8214 39.0155 37.8948 38.3872 36.8298 37.9612C35.7862 37.5139 34.6679 37.2903 33.4752 37.2903C32.2824 37.2903 31.1535 37.5139 30.0885 37.9612C29.0448 38.3872 28.129 39.0155 27.3409 39.8462C26.5741 40.6556 25.967 41.6354 25.5198 42.7856C25.0725 43.9145 24.8488 45.1818 24.8488 46.5876C24.8488 47.9081 25.0725 49.1329 25.5198 50.2617C25.967 51.3906 26.5741 52.3704 27.3409 53.2011C28.129 54.0318 29.0448 54.6921 30.0885 55.182C31.1535 55.6505 32.2824 55.8848 33.4752 55.8848C34.6679 55.8848 35.7862 55.6612 36.8298 55.2139C37.8948 54.7666 38.8214 54.1383 39.6094 53.3289C40.3975 52.5195 41.0152 51.5397 41.4625 50.3895C41.9311 49.2394 42.1654 47.972 42.1654 46.5876Z" fill="#80FF00"/>
<path d="M100.148 81.6133C100.148 81.1758 100.062 80.7539 99.8906 80.3477C99.7266 79.9336 99.5 79.5703 99.2109 79.2578C98.9219 78.9375 98.582 78.6836 98.1914 78.4961C97.8086 78.3008 97.3984 78.2031 96.9609 78.2031C96.5234 78.2031 96.1094 78.2773 95.7188 78.4258C95.3359 78.5742 95 78.793 94.7109 79.082C94.4297 79.3711 94.207 79.7305 94.043 80.1602C93.8789 80.582 93.7969 81.0664 93.7969 81.6133C93.7969 82.1367 93.8789 82.6094 94.043 83.0312C94.207 83.4453 94.4297 83.8008 94.7109 84.0977C95 84.3945 95.3359 84.625 95.7188 84.7891C96.1094 84.9453 96.5234 85.0234 96.9609 85.0234C97.3984 85.0234 97.8086 84.9297 98.1914 84.7422C98.582 84.5469 98.9219 84.293 99.2109 83.9805C99.5 83.6602 99.7266 83.2969 99.8906 82.8906C100.062 82.4766 100.148 82.0508 100.148 81.6133ZM103.371 86.418C103.371 87.3008 103.203 88.1289 102.867 88.9023C102.531 89.6758 102.07 90.3516 101.484 90.9297C100.906 91.5078 100.227 91.9648 99.4453 92.3008C98.6719 92.6367 97.8438 92.8047 96.9609 92.8047L95.3555 92.7812V89.582L96.9375 89.6055C97.4375 89.6055 97.8633 89.5391 98.2148 89.4062C98.5664 89.2812 98.8633 89.1055 99.1055 88.8789C99.3477 88.6602 99.5391 88.4062 99.6797 88.1172C99.8281 87.8281 99.9453 87.5234 100.031 87.2031C99.9062 87.4062 99.7266 87.5742 99.4922 87.707C99.2578 87.832 98.9961 87.9336 98.707 88.0117C98.4258 88.0977 98.1289 88.1562 97.8164 88.1875C97.5117 88.2188 97.2266 88.2344 96.9609 88.2344C96.0781 88.2344 95.2461 88.082 94.4648 87.7773C93.6914 87.4727 93.0117 87.0391 92.4258 86.4766C91.8477 85.9062 91.3906 85.2109 91.0547 84.3906C90.7188 83.5703 90.5508 82.6445 90.5508 81.6133C90.5508 80.668 90.7188 79.7891 91.0547 78.9766C91.3906 78.1641 91.8477 77.4609 92.4258 76.8672C93.0117 76.2734 93.6914 75.8086 94.4648 75.4727C95.2461 75.1367 96.0781 74.9688 96.9609 74.9688C97.3672 74.9688 97.7695 75.0195 98.168 75.1211C98.5664 75.2227 98.9531 75.3633 99.3281 75.543C99.7031 75.7227 100.059 75.9336 100.395 76.1758C100.738 76.418 101.059 76.6797 101.355 76.9609L102.598 75.4727H103.371V86.418ZM117.973 88H117.199L115.957 86.2773C115.652 86.5508 115.328 86.8086 114.984 87.0508C114.648 87.2852 114.293 87.4922 113.918 87.6719C113.543 87.8438 113.156 87.9805 112.758 88.082C112.367 88.1836 111.969 88.2344 111.562 88.2344C110.68 88.2344 109.848 88.0859 109.066 87.7891C108.293 87.4922 107.613 87.0625 107.027 86.5C106.449 85.9297 105.992 85.2344 105.656 84.4141C105.32 83.5938 105.152 82.6602 105.152 81.6133C105.152 80.6367 105.32 79.7422 105.656 78.9297C105.992 78.1094 106.449 77.4062 107.027 76.8203C107.613 76.2344 108.293 75.7812 109.066 75.4609C109.848 75.1328 110.68 74.9688 111.562 74.9688C111.969 74.9688 112.371 75.0195 112.77 75.1211C113.168 75.2227 113.555 75.3633 113.93 75.543C114.305 75.7227 114.66 75.9336 114.996 76.1758C115.34 76.418 115.66 76.6797 115.957 76.9609L117.199 75.4727H117.973V88ZM114.75 81.6133C114.75 81.1758 114.664 80.7539 114.492 80.3477C114.328 79.9336 114.102 79.5703 113.812 79.2578C113.523 78.9375 113.184 78.6836 112.793 78.4961C112.41 78.3008 112 78.2031 111.562 78.2031C111.125 78.2031 110.711 78.2773 110.32 78.4258C109.938 78.5742 109.602 78.793 109.312 79.082C109.031 79.3711 108.809 79.7305 108.645 80.1602C108.48 80.582 108.398 81.0664 108.398 81.6133C108.398 82.1602 108.48 82.6484 108.645 83.0781C108.809 83.5 109.031 83.8555 109.312 84.1445C109.602 84.4336 109.938 84.6523 110.32 84.8008C110.711 84.9492 111.125 85.0234 111.562 85.0234C112 85.0234 112.41 84.9297 112.793 84.7422C113.184 84.5469 113.523 84.293 113.812 83.9805C114.102 83.6602 114.328 83.2969 114.492 82.8906C114.664 82.4766 114.75 82.0508 114.75 81.6133ZM136.383 88H133.195V80.0312C133.195 79.8125 133.152 79.6055 133.066 79.4102C132.988 79.2148 132.875 79.043 132.727 78.8945C132.578 78.7461 132.406 78.6328 132.211 78.5547C132.016 78.4688 131.809 78.4258 131.59 78.4258C131.371 78.4258 131.164 78.4688 130.969 78.5547C130.781 78.6328 130.613 78.7461 130.465 78.8945C130.324 79.043 130.211 79.2148 130.125 79.4102C130.047 79.6055 130.008 79.8125 130.008 80.0312V88H126.809V80.0312C126.809 79.8125 126.766 79.6055 126.68 79.4102C126.602 79.2148 126.488 79.043 126.34 78.8945C126.191 78.7461 126.02 78.6328 125.824 78.5547C125.629 78.4688 125.422 78.4258 125.203 78.4258C124.984 78.4258 124.777 78.4688 124.582 78.5547C124.395 78.6328 124.227 78.7461 124.078 78.8945C123.938 79.043 123.824 79.2148 123.738 79.4102C123.66 79.6055 123.621 79.8125 123.621 80.0312V88H120.422V75.4492H121.195L122.062 76.4102C122.508 76.0352 122.996 75.7461 123.527 75.543C124.066 75.332 124.625 75.2266 125.203 75.2266C125.789 75.2266 126.359 75.3359 126.914 75.5547C127.477 75.7734 127.969 76.1523 128.391 76.6914C128.586 76.4258 128.809 76.1992 129.059 76.0117C129.309 75.8242 129.57 75.6719 129.844 75.5547C130.125 75.4375 130.414 75.3555 130.711 75.3086C131.008 75.2539 131.301 75.2266 131.59 75.2266C132.254 75.2266 132.875 75.3516 133.453 75.6016C134.039 75.8516 134.547 76.1953 134.977 76.6328C135.414 77.0625 135.758 77.5703 136.008 78.1562C136.258 78.7422 136.383 79.3672 136.383 80.0312V88ZM142.5 72.0391C142.5 72.3359 142.441 72.6133 142.324 72.8711C142.215 73.1289 142.062 73.3555 141.867 73.5508C141.672 73.7383 141.441 73.8906 141.176 74.0078C140.918 74.1172 140.641 74.1719 140.344 74.1719C140.047 74.1719 139.766 74.1172 139.5 74.0078C139.242 73.8906 139.016 73.7383 138.82 73.5508C138.633 73.3555 138.48 73.1289 138.363 72.8711C138.254 72.6133 138.199 72.3359 138.199 72.0391C138.199 71.75 138.254 71.4766 138.363 71.2188C138.48 70.9531 138.633 70.7266 138.82 70.5391C139.016 70.3438 139.242 70.1914 139.5 70.082C139.766 69.9648 140.047 69.9062 140.344 69.9062C140.641 69.9062 140.918 69.9648 141.176 70.082C141.441 70.1914 141.672 70.3438 141.867 70.5391C142.062 70.7266 142.215 70.9531 142.324 71.2188C142.441 71.4766 142.5 71.75 142.5 72.0391ZM141.949 88H138.727V75.4492H141.949V88ZM147.598 88H144.398V75.4492H145.172L146.227 76.668C146.742 76.1992 147.324 75.8398 147.973 75.5898C148.629 75.332 149.312 75.2031 150.023 75.2031C150.789 75.2031 151.512 75.3516 152.191 75.6484C152.871 75.9375 153.465 76.3398 153.973 76.8555C154.48 77.3633 154.879 77.9609 155.168 78.6484C155.465 79.3281 155.613 80.0547 155.613 80.8281V88H152.414V80.8281C152.414 80.5 152.352 80.1914 152.227 79.9023C152.102 79.6055 151.93 79.3477 151.711 79.1289C151.492 78.9102 151.238 78.7383 150.949 78.6133C150.66 78.4883 150.352 78.4258 150.023 78.4258C149.688 78.4258 149.371 78.4883 149.074 78.6133C148.777 78.7383 148.52 78.9102 148.301 79.1289C148.082 79.3477 147.91 79.6055 147.785 79.9023C147.66 80.1914 147.598 80.5 147.598 80.8281V88ZM166.828 81.6133C166.828 81.1758 166.742 80.7539 166.57 80.3477C166.406 79.9336 166.18 79.5703 165.891 79.2578C165.602 78.9375 165.262 78.6836 164.871 78.4961C164.488 78.3008 164.078 78.2031 163.641 78.2031C163.203 78.2031 162.789 78.2773 162.398 78.4258C162.016 78.5742 161.68 78.793 161.391 79.082C161.109 79.3711 160.887 79.7305 160.723 80.1602C160.559 80.582 160.477 81.0664 160.477 81.6133C160.477 82.1367 160.559 82.6094 160.723 83.0312C160.887 83.4453 161.109 83.8008 161.391 84.0977C161.68 84.3945 162.016 84.625 162.398 84.7891C162.789 84.9453 163.203 85.0234 163.641 85.0234C164.078 85.0234 164.488 84.9297 164.871 84.7422C165.262 84.5469 165.602 84.293 165.891 83.9805C166.18 83.6602 166.406 83.2969 166.57 82.8906C166.742 82.4766 166.828 82.0508 166.828 81.6133ZM170.051 86.418C170.051 87.3008 169.883 88.1289 169.547 88.9023C169.211 89.6758 168.75 90.3516 168.164 90.9297C167.586 91.5078 166.906 91.9648 166.125 92.3008C165.352 92.6367 164.523 92.8047 163.641 92.8047L162.035 92.7812V89.582L163.617 89.6055C164.117 89.6055 164.543 89.5391 164.895 89.4062C165.246 89.2812 165.543 89.1055 165.785 88.8789C166.027 88.6602 166.219 88.4062 166.359 88.1172C166.508 87.8281 166.625 87.5234 166.711 87.2031C166.586 87.4062 166.406 87.5742 166.172 87.707C165.938 87.832 165.676 87.9336 165.387 88.0117C165.105 88.0977 164.809 88.1562 164.496 88.1875C164.191 88.2188 163.906 88.2344 163.641 88.2344C162.758 88.2344 161.926 88.082 161.145 87.7773C160.371 87.4727 159.691 87.0391 159.105 86.4766C158.527 85.9062 158.07 85.2109 157.734 84.3906C157.398 83.5703 157.23 82.6445 157.23 81.6133C157.23 80.668 157.398 79.7891 157.734 78.9766C158.07 78.1641 158.527 77.4609 159.105 76.8672C159.691 76.2734 160.371 75.8086 161.145 75.4727C161.926 75.1367 162.758 74.9688 163.641 74.9688C164.047 74.9688 164.449 75.0195 164.848 75.1211C165.246 75.2227 165.633 75.3633 166.008 75.543C166.383 75.7227 166.738 75.9336 167.074 76.1758C167.418 76.418 167.738 76.6797 168.035 76.9609L169.277 75.4727H170.051V86.418Z" fill="white"/>
<line x1="182" y1="81" x2="240" y2="81" stroke="#80FF00" stroke-width="2"/>
<line x1="22" y1="81" x2="80" y2="81" stroke="#80FF00" stroke-width="2"/>
</svg>
