<svg width="142" height="45" viewBox="0 0 142 45" fill="none" xmlns="http://www.w3.org/2000/svg">
<path d="M49.2363 36H48.0762L46.2129 33.416C45.7559 33.8262 45.2695 34.2129 44.7539 34.5762C44.25 34.9277 43.7168 35.2383 43.1543 35.5078C42.5918 35.7656 42.0117 35.9707 41.4141 36.123C40.8281 36.2754 40.2305 36.3516 39.6211 36.3516C38.2969 36.3516 37.0488 36.1289 35.877 35.6836C34.7168 35.2383 33.6973 34.5938 32.8184 33.75C31.9512 32.8945 31.2656 31.8516 30.7617 30.6211C30.2578 29.3906 30.0059 27.9902 30.0059 26.4199C30.0059 24.9551 30.2578 23.6133 30.7617 22.3945C31.2656 21.1641 31.9512 20.1094 32.8184 19.2305C33.6973 18.3516 34.7168 17.6719 35.877 17.1914C37.0488 16.6992 38.2969 16.4531 39.6211 16.4531C40.2305 16.4531 40.834 16.5293 41.4316 16.6816C42.0293 16.834 42.6094 17.0449 43.1719 17.3145C43.7344 17.584 44.2676 17.9004 44.7715 18.2637C45.2871 18.627 45.7676 19.0195 46.2129 19.4414L48.0762 17.209H49.2363V36ZM44.4023 26.4199C44.4023 25.7637 44.2734 25.1309 44.0156 24.5215C43.7695 23.9004 43.4297 23.3555 42.9961 22.8867C42.5625 22.4062 42.0527 22.0254 41.4668 21.7441C40.8926 21.4512 40.2773 21.3047 39.6211 21.3047C38.9648 21.3047 38.3438 21.416 37.7578 21.6387C37.1836 21.8613 36.6797 22.1895 36.2461 22.623C35.8242 23.0566 35.4902 23.5957 35.2441 24.2402C34.998 24.873 34.875 25.5996 34.875 26.4199C34.875 27.2402 34.998 27.9727 35.2441 28.6172C35.4902 29.25 35.8242 29.7832 36.2461 30.2168C36.6797 30.6504 37.1836 30.9785 37.7578 31.2012C38.3438 31.4238 38.9648 31.5352 39.6211 31.5352C40.2773 31.5352 40.8926 31.3945 41.4668 31.1133C42.0527 30.8203 42.5625 30.4395 42.9961 29.9707C43.4297 29.4902 43.7695 28.9453 44.0156 28.3359C44.2734 27.7148 44.4023 27.0762 44.4023 26.4199ZM76.8516 36H72.0703V24.0469C72.0703 23.7188 72.0059 23.4082 71.877 23.1152C71.7598 22.8223 71.5898 22.5645 71.3672 22.3418C71.1445 22.1191 70.8867 21.9492 70.5938 21.832C70.3008 21.7031 69.9902 21.6387 69.6621 21.6387C69.334 21.6387 69.0234 21.7031 68.7305 21.832C68.4492 21.9492 68.1973 22.1191 67.9746 22.3418C67.7637 22.5645 67.5938 22.8223 67.4648 23.1152C67.3477 23.4082 67.2891 23.7188 67.2891 24.0469V36H62.4902V24.0469C62.4902 23.7188 62.4258 23.4082 62.2969 23.1152C62.1797 22.8223 62.0098 22.5645 61.7871 22.3418C61.5645 22.1191 61.3066 21.9492 61.0137 21.832C60.7207 21.7031 60.4102 21.6387 60.082 21.6387C59.7539 21.6387 59.4434 21.7031 59.1504 21.832C58.8691 21.9492 58.6172 22.1191 58.3945 22.3418C58.1836 22.5645 58.0137 22.8223 57.8848 23.1152C57.7676 23.4082 57.709 23.7188 57.709 24.0469V36H52.9102V17.1738H54.0703L55.3711 18.6152C56.0391 18.0527 56.7715 17.6191 57.5684 17.3145C58.377 16.998 59.2148 16.8398 60.082 16.8398C60.9609 16.8398 61.8164 17.0039 62.6484 17.332C63.4922 17.6602 64.2305 18.2285 64.8633 19.0371C65.1562 18.6387 65.4902 18.2988 65.8652 18.0176C66.2402 17.7363 66.6328 17.5078 67.043 17.332C67.4648 17.1562 67.8984 17.0332 68.3438 16.9629C68.7891 16.8809 69.2285 16.8398 69.6621 16.8398C70.6582 16.8398 71.5898 17.0273 72.457 17.4023C73.3359 17.7773 74.0977 18.293 74.7422 18.9492C75.3984 19.5938 75.9141 20.3555 76.2891 21.2344C76.6641 22.1133 76.8516 23.0508 76.8516 24.0469V36ZM99.0703 26.4199C99.0703 27.8965 98.8184 29.2441 98.3145 30.4629C97.8105 31.6816 97.125 32.7305 96.2578 33.6094C95.3906 34.4766 94.3711 35.1504 93.1992 35.6309C92.0391 36.1113 90.791 36.3516 89.4551 36.3516C88.1309 36.3516 86.8828 36.1055 85.7109 35.6133C84.5508 35.1211 83.5312 34.4355 82.6523 33.5566C81.7852 32.6777 81.0996 31.6348 80.5957 30.4277C80.0918 29.209 79.8398 27.873 79.8398 26.4199V9.68555H84.6562V18.4746C84.9141 18.1465 85.2246 17.8535 85.5879 17.5957C85.9629 17.3379 86.3613 17.127 86.7832 16.9629C87.2168 16.7988 87.6621 16.6758 88.1191 16.5938C88.5762 16.5 89.0215 16.4531 89.4551 16.4531C90.791 16.4531 92.0391 16.7051 93.1992 17.209C94.3711 17.7012 95.3906 18.3926 96.2578 19.2832C97.125 20.1738 97.8105 21.2285 98.3145 22.4473C98.8184 23.6543 99.0703 24.9785 99.0703 26.4199ZM94.2363 26.4199C94.2363 25.6934 94.1074 25.0195 93.8496 24.3984C93.6035 23.7656 93.2637 23.2207 92.8301 22.7637C92.3965 22.3066 91.8867 21.9492 91.3008 21.6914C90.7266 21.4336 90.1113 21.3047 89.4551 21.3047C88.7988 21.3047 88.1777 21.4512 87.5918 21.7441C87.0176 22.0254 86.5137 22.4062 86.0801 22.8867C85.6465 23.3555 85.3066 23.9004 85.0605 24.5215C84.8145 25.1309 84.6914 25.7637 84.6914 26.4199C84.6914 27.1465 84.8145 27.8203 85.0605 28.4414C85.3066 29.0625 85.6465 29.6016 86.0801 30.0586C86.5137 30.5156 87.0176 30.8789 87.5918 31.1484C88.1777 31.4062 88.7988 31.5352 89.4551 31.5352C90.1113 31.5352 90.7266 31.4062 91.3008 31.1484C91.8867 30.8789 92.3965 30.5156 92.8301 30.0586C93.2637 29.6016 93.6035 29.0625 93.8496 28.4414C94.1074 27.8203 94.2363 27.1465 94.2363 26.4199ZM119.936 26.4199C119.936 27.8262 119.684 29.1387 119.18 30.3574C118.676 31.5645 117.99 32.6133 117.123 33.5039C116.256 34.3828 115.236 35.0801 114.064 35.5957C112.904 36.0996 111.656 36.3516 110.32 36.3516C108.996 36.3516 107.748 36.0996 106.576 35.5957C105.416 35.0801 104.396 34.3828 103.518 33.5039C102.65 32.6133 101.965 31.5645 101.461 30.3574C100.957 29.1387 100.705 27.8262 100.705 26.4199C100.705 24.9902 100.957 23.666 101.461 22.4473C101.965 21.2285 102.65 20.1797 103.518 19.3008C104.396 18.4102 105.416 17.7129 106.576 17.209C107.748 16.7051 108.996 16.4531 110.32 16.4531C111.656 16.4531 112.904 16.6934 114.064 17.1738C115.236 17.6426 116.256 18.3164 117.123 19.1953C117.99 20.0625 118.676 21.1113 119.18 22.3418C119.684 23.5605 119.936 24.9199 119.936 26.4199ZM115.102 26.4199C115.102 25.6465 114.973 24.9492 114.715 24.3281C114.469 23.6953 114.129 23.1562 113.695 22.7109C113.262 22.2539 112.752 21.9082 112.166 21.6738C111.592 21.4277 110.977 21.3047 110.32 21.3047C109.664 21.3047 109.043 21.4277 108.457 21.6738C107.883 21.9082 107.379 22.2539 106.945 22.7109C106.523 23.1562 106.189 23.6953 105.943 24.3281C105.697 24.9492 105.574 25.6465 105.574 26.4199C105.574 27.1465 105.697 27.8203 105.943 28.4414C106.189 29.0625 106.523 29.6016 106.945 30.0586C107.379 30.5156 107.883 30.8789 108.457 31.1484C109.043 31.4062 109.664 31.5352 110.32 31.5352C110.977 31.5352 111.592 31.4121 112.166 31.166C112.752 30.9199 113.262 30.5742 113.695 30.1289C114.129 29.6836 114.469 29.1445 114.715 28.5117C114.973 27.8789 115.102 27.1816 115.102 26.4199ZM140.783 26.4199C140.783 27.8262 140.531 29.1387 140.027 30.3574C139.523 31.5645 138.838 32.6133 137.971 33.5039C137.104 34.3828 136.084 35.0801 134.912 35.5957C133.752 36.0996 132.504 36.3516 131.168 36.3516C129.844 36.3516 128.596 36.0996 127.424 35.5957C126.264 35.0801 125.244 34.3828 124.365 33.5039C123.498 32.6133 122.812 31.5645 122.309 30.3574C121.805 29.1387 121.553 27.8262 121.553 26.4199C121.553 24.9902 121.805 23.666 122.309 22.4473C122.812 21.2285 123.498 20.1797 124.365 19.3008C125.244 18.4102 126.264 17.7129 127.424 17.209C128.596 16.7051 129.844 16.4531 131.168 16.4531C132.504 16.4531 133.752 16.6934 134.912 17.1738C136.084 17.6426 137.104 18.3164 137.971 19.1953C138.838 20.0625 139.523 21.1113 140.027 22.3418C140.531 23.5605 140.783 24.9199 140.783 26.4199ZM135.949 26.4199C135.949 25.6465 135.82 24.9492 135.562 24.3281C135.316 23.6953 134.977 23.1562 134.543 22.7109C134.109 22.2539 133.6 21.9082 133.014 21.6738C132.439 21.4277 131.824 21.3047 131.168 21.3047C130.512 21.3047 129.891 21.4277 129.305 21.6738C128.73 21.9082 128.227 22.2539 127.793 22.7109C127.371 23.1562 127.037 23.6953 126.791 24.3281C126.545 24.9492 126.422 25.6465 126.422 26.4199C126.422 27.1465 126.545 27.8203 126.791 28.4414C127.037 29.0625 127.371 29.6016 127.793 30.0586C128.227 30.5156 128.73 30.8789 129.305 31.1484C129.891 31.4062 130.512 31.5352 131.168 31.5352C131.824 31.5352 132.439 31.4121 133.014 31.166C133.6 30.9199 134.109 30.5742 134.543 30.1289C134.977 29.6836 135.316 29.1445 135.562 28.5117C135.82 27.8789 135.949 27.1816 135.949 26.4199Z" fill="#272727"/>
<rect x="6" y="3" width="6" height="33" rx="3" fill="#272727"/>
<ellipse cx="13.6797" cy="9.55765" rx="2.55198" ry="4.94382" transform="rotate(29.9583 13.6797 9.55765)" fill="#272727"/>
<ellipse rx="2.55198" ry="4.94382" transform="matrix(0.86639 -0.499369 -0.499369 -0.86639 4.67972 21.5576)" fill="#272727"/>
<path d="M28.0215 26.4199C28.0215 27.8262 27.7695 29.1387 27.2656 30.3574C26.7617 31.5645 26.0762 32.6133 25.209 33.5039C24.3418 34.3828 23.3223 35.0801 22.1504 35.5957C20.9902 36.0996 19.7422 36.3516 18.4062 36.3516C17.082 36.3516 15.834 36.0996 14.6621 35.5957C13.502 35.0801 12.4824 34.3828 11.6035 33.5039C10.7363 32.6133 10.0508 31.5645 9.54688 30.3574C9.04297 29.1387 8.79102 27.8262 8.79102 26.4199C8.79102 24.9902 9.04297 23.666 9.54688 22.4473C10.0508 21.2285 10.7363 20.1797 11.6035 19.3008C12.4824 18.4102 13.502 17.7129 14.6621 17.209C15.834 16.7051 17.082 16.4531 18.4062 16.4531C19.7422 16.4531 20.9902 16.6934 22.1504 17.1738C23.3223 17.6426 24.3418 18.3164 25.209 19.1953C26.0762 20.0625 26.7617 21.1113 27.2656 22.3418C27.7695 23.5605 28.0215 24.9199 28.0215 26.4199ZM23.1875 26.4199C23.1875 25.6465 23.0586 24.9492 22.8008 24.3281C22.5547 23.6953 22.2148 23.1562 21.7812 22.7109C21.3477 22.2539 20.8379 21.9082 20.252 21.6738C19.6777 21.4277 19.0625 21.3047 18.4062 21.3047C17.75 21.3047 17.1289 21.4277 16.543 21.6738C15.9688 21.9082 15.4648 22.2539 15.0312 22.7109C14.6094 23.1562 14.2754 23.6953 14.0293 24.3281C13.7832 24.9492 13.6602 25.6465 13.6602 26.4199C13.6602 27.1465 13.7832 27.8203 14.0293 28.4414C14.2754 29.0625 14.6094 29.6016 15.0312 30.0586C15.4648 30.5156 15.9688 30.8789 16.543 31.1484C17.1289 31.4062 17.75 31.5352 18.4062 31.5352C19.0625 31.5352 19.6777 31.4121 20.252 31.166C20.8379 30.9199 21.3477 30.5742 21.7812 30.1289C22.2148 29.6836 22.5547 29.1445 22.8008 28.5117C23.0586 27.8789 23.1875 27.1816 23.1875 26.4199Z" fill="#272727"/>
</svg>
