<svg width="37" height="37" viewBox="0 0 37 37" fill="none" xmlns="http://www.w3.org/2000/svg">
<path d="M18.5002 33.9167C9.98577 33.9167 3.0835 27.0144 3.0835 18.5C3.0835 9.98565 9.98577 3.08337 18.5002 3.08337C27.0146 3.08337 33.9168 9.98565 33.9168 18.5C33.9075 27.0106 27.0107 33.9074 18.5002 33.9167ZM18.4755 30.8334H18.5002C25.3093 30.8266 30.8246 25.303 30.8212 18.4939C30.8178 11.6848 25.2969 6.16671 18.4878 6.16671C11.6787 6.16671 6.1579 11.6848 6.1545 18.4939C6.15109 25.303 11.6664 30.8266 18.4755 30.8334ZM20.0418 26.2084H16.9585V16.6963L12.9656 20.6738L10.7918 18.5L18.5002 10.7917L26.2085 18.5L24.0347 20.6738L20.0418 16.6963V26.2084Z" fill="#80FF00"/>
</svg>
