<svg width="28" height="45" viewBox="0 0 28 45" fill="none" xmlns="http://www.w3.org/2000/svg">
<rect x="6" y="3" width="6" height="33" rx="3" fill="white"/>
<ellipse cx="13.6797" cy="9.55765" rx="2.55198" ry="4.94382" transform="rotate(29.9583 13.6797 9.55765)" fill="white"/>
<ellipse rx="2.55198" ry="4.94382" transform="matrix(0.86639 -0.499369 -0.499369 -0.86639 4.67972 21.5576)" fill="white"/>
<path d="M27.0215 26.4199C27.0215 27.8262 26.7695 29.1387 26.2656 30.3574C25.7617 31.5645 25.0762 32.6133 24.209 33.5039C23.3418 34.3828 22.3223 35.0801 21.1504 35.5957C19.9902 36.0996 18.7422 36.3516 17.4062 36.3516C16.082 36.3516 14.834 36.0996 13.6621 35.5957C12.502 35.0801 11.4824 34.3828 10.6035 33.5039C9.73633 32.6133 9.05078 31.5645 8.54688 30.3574C8.04297 29.1387 7.79102 27.8262 7.79102 26.4199C7.79102 24.9902 8.04297 23.666 8.54688 22.4473C9.05078 21.2285 9.73633 20.1797 10.6035 19.3008C11.4824 18.4102 12.502 17.7129 13.6621 17.209C14.834 16.7051 16.082 16.4531 17.4062 16.4531C18.7422 16.4531 19.9902 16.6934 21.1504 17.1738C22.3223 17.6426 23.3418 18.3164 24.209 19.1953C25.0762 20.0625 25.7617 21.1113 26.2656 22.3418C26.7695 23.5605 27.0215 24.9199 27.0215 26.4199ZM22.1875 26.4199C22.1875 25.6465 22.0586 24.9492 21.8008 24.3281C21.5547 23.6953 21.2148 23.1562 20.7812 22.7109C20.3477 22.2539 19.8379 21.9082 19.252 21.6738C18.6777 21.4277 18.0625 21.3047 17.4062 21.3047C16.75 21.3047 16.1289 21.4277 15.543 21.6738C14.9688 21.9082 14.4648 22.2539 14.0312 22.7109C13.6094 23.1562 13.2754 23.6953 13.0293 24.3281C12.7832 24.9492 12.6602 25.6465 12.6602 26.4199C12.6602 27.1465 12.7832 27.8203 13.0293 28.4414C13.2754 29.0625 13.6094 29.6016 14.0312 30.0586C14.4648 30.5156 14.9688 30.8789 15.543 31.1484C16.1289 31.4062 16.75 31.5352 17.4062 31.5352C18.0625 31.5352 18.6777 31.4121 19.252 31.166C19.8379 30.9199 20.3477 30.5742 20.7812 30.1289C21.2148 29.6836 21.5547 29.1445 21.8008 28.5117C22.0586 27.8789 22.1875 27.1816 22.1875 26.4199Z" fill="white"/>
</svg>
